<?xml version="1.0" encoding="UTF-8"?>
<svg id="Camada_2" data-name="Camada 2" xmlns="http://www.w3.org/2000/svg" viewBox="0 0 216.9 225.46">
  <defs>
    <style>
      .cls-1 {
        fill: #4a4a4a;
      }

      .cls-2 {
        fill: #004885;
      }

      .cls-3 {
        fill: #00814b;
      }

      .cls-4 {
        fill: #ffb500;
      }
    </style>
  </defs>
  <g id="Camada_1-2" data-name="Camada 1-2">
    <g>
      <g>
        <path class="cls-3" d="M67.34,131.32L.5,26.68c-.33,1.84-.5,3.72-.5,5.63v89.57c0,17.85,14.39,32.33,32.14,32.33h31.21c3.36,0,6-2.92,5.65-6.3l-1.66-16.61v.02Z"/>
        <path class="cls-3" d="M149.56,131.32L216.4,26.68c.33,1.84.5,3.72.5,5.63v89.57c0,17.85-14.39,32.33-32.14,32.33h-31.21c-3.36,0-6-2.92-5.65-6.3l1.66-16.61v.02h0Z"/>
        <path class="cls-2" d="M108.45,43.1c11.83,0,21.42-9.65,21.42-21.55S120.28,0,108.45,0s-21.42,9.65-21.42,21.55,9.59,21.55,21.42,21.55Z"/>
        <path class="cls-4" d="M170.22,0C166.45,0,162.94,1.87,160.82,5l-52.99,79.37L54.85,5C52.72,1.87,49.22,0,45.45,0h-13.78C20.53,0,13.89,1.66,8.13,10.31l79.69,123.28c3.88,5.84,13.23,14.76,20.01,14.76s16.1-8.95,20.02-14.77L207.54,10.31C201.78,1.65,195.14,0,184.01,0h-13.79Z"/>
      </g>
      <g>
        <g>
          <path class="cls-1" d="M14.45,225.46c8.03,0,13.5-4.13,13.5-10.23s-4.4-9.29-12.65-10.14c-3.99-.4-5.43-1.17-5.43-2.87s2.06-2.69,5.47-2.69c2.78,0,5.38.81,7.63,2.33l3.9-5.97c-3.14-2.2-7.49-3.45-11.98-3.45-7.99,0-13.28,4.04-13.28,10.14s3.86,8.75,12.47,9.56c3.86.36,5.52,1.26,5.52,3.01s-1.97,2.83-5.2,2.83c-3.54,0-6.51-.99-9.29-3.1l-4.4,6.1c3.36,2.83,8.48,4.49,13.73,4.49h0Z"/>
          <polygon class="cls-1" points="44.27 218.06 44.27 212.19 60.25 212.19 60.25 205.24 44.27 205.24 44.27 199.74 61.19 199.74 61.19 192.5 35.67 192.5 35.67 225.39 61.84 225.39 61.84 218.06 44.27 218.06 44.27 218.06"/>
          <path class="cls-1" d="M83.44,205.69v6.56h8.36v4c-1.53,1.3-3.91,2.07-6.65,2.07-5.17,0-8.63-3.73-8.63-9.34,0-5.93,3.23-9.34,8.94-9.34,2.7,0,5.3,1.03,7.19,2.92l5.08-4.9c-3.41-3.68-7.23-5.21-12.17-5.21-10.42,0-17.39,6.74-17.39,16.53s6.51,16.49,16.76,16.49c5.84,0,10.87-1.98,13.88-5.39v-14.38h-15.37Z"/>
          <path class="cls-1" d="M122.18,225.46c9.69,0,15.09-5.4,15.09-14.91v-18.09h-8.77v18.09c0,4.62-2.35,7.29-6.32,7.29s-6.32-2.68-6.32-7.29v-18.09h-8.77v18.09c0,9.51,5.4,14.91,15.09,14.91h0Z"/>
          <path class="cls-1" d="M167.54,213.86c4.56-1.69,6.95-5.26,6.95-10.1,0-6.67-4.7-11.28-11.98-11.28h-16.3v32.89h8.93v-10.62h3.29l7.66,10.62h10.43l-8.97-11.51h0ZM165.71,203.9c0,2.58-1.6,3.99-4.56,3.99h-6.11v-7.99h6.11c2.96,0,4.56,1.41,4.56,3.99h0Z"/>
          <path class="cls-1" d="M216.18,208.95c0-10.05-6.77-16.51-17.32-16.51s-17.32,6.46-17.32,16.51,6.77,16.51,17.32,16.51,17.32-6.46,17.32-16.51ZM198.86,217.97c-5.34,0-8.79-3.54-8.79-9.02s3.45-9.02,8.79-9.02,8.79,3.54,8.79,9.02-3.45,9.02-8.79,9.02Z"/>
        </g>
        <g>
          <g>
            <polygon class="cls-1" points="13.57 170.02 8.65 176.14 3.74 170.02 .72 170.02 .72 184.4 4.07 184.4 4.07 175.38 8.35 180.58 9 180.58 13.24 175.4 13.24 184.4 16.59 184.4 16.59 170.02 13.57 170.02 13.57 170.02"/>
            <path class="cls-1" d="M27.84,169.67c-4.68,0-7.75,2.98-7.75,7.54s3.06,7.54,7.75,7.54,7.75-2.98,7.75-7.54-3.06-7.54-7.75-7.54ZM27.84,181.75c-2.63,0-4.36-1.81-4.36-4.54s1.73-4.54,4.36-4.54,4.38,1.81,4.38,4.54-1.75,4.54-4.38,4.54Z"/>
            <polygon class="cls-1" points="50.76 170.02 48.85 174.91 46.78 180.5 44.74 174.91 42.81 170.02 39.09 170.02 45.01 184.4 48.56 184.4 54.48 170.02 50.76 170.02 50.76 170.02"/>
            <rect class="cls-1" x="57.99" y="170.02" width="3.37" height="14.38"/>
            <polygon class="cls-1" points="77.7 170.02 72.79 176.14 67.88 170.02 64.86 170.02 64.86 184.4 68.21 184.4 68.21 175.38 72.49 180.58 73.14 180.58 77.38 175.4 77.38 184.4 80.72 184.4 80.72 170.02 77.7 170.02 77.7 170.02"/>
            <polygon class="cls-1" points="87.5 181.57 87.5 178.46 94.79 178.46 94.79 175.75 87.5 175.75 87.5 172.83 95.2 172.83 95.2 170.02 84.23 170.02 84.23 184.4 95.43 184.4 95.43 181.57 87.5 181.57 87.5 181.57"/>
            <polygon class="cls-1" points="108.43 170.02 108.43 175.11 108.47 178.96 101.96 170.02 98.93 170.02 98.93 184.4 102.28 184.4 102.28 179.39 102.24 175.5 108.76 184.4 111.78 184.4 111.78 170.02 108.43 170.02"/>
            <polygon class="cls-1" points="127.43 170.02 115.28 170.02 115.28 172.96 119.66 172.96 119.66 184.4 123.03 184.4 123.03 172.96 127.43 172.96 127.43 170.02"/>
            <path class="cls-1" d="M138.68,169.69c-4.68,0-7.75,2.98-7.75,7.54s3.06,7.54,7.75,7.54,7.75-2.98,7.75-7.54-3.06-7.54-7.75-7.54ZM138.67,181.77c-2.63,0-4.36-1.81-4.36-4.54s1.73-4.54,4.36-4.54,4.38,1.81,4.38,4.54-1.75,4.54-4.38,4.54Z"/>
          </g>
          <g>
            <path class="cls-1" d="M210.02,184.75c3.66,0,6.16-1.88,6.16-4.67,0-2.64-2.01-4.24-5.77-4.63-1.82-.18-2.48-.53-2.48-1.31s.94-1.23,2.5-1.23c1.27,0,2.46.37,3.48,1.06l1.78-2.72c-1.43-1-3.42-1.58-5.47-1.58-3.64,0-6.06,1.84-6.06,4.63,0,2.64,1.76,3.99,5.69,4.36,1.76.16,2.52.57,2.52,1.37s-.9,1.29-2.37,1.29c-1.62,0-2.97-.45-4.24-1.41l-2.01,2.78c1.54,1.29,3.87,2.05,6.26,2.05h0Z"/>
            <polygon class="cls-1" points="170 169.76 165.22 175.69 160.44 169.76 156.76 169.76 156.76 184.75 160.8 184.75 160.8 175.81 164.89 180.77 165.59 180.77 169.65 175.83 169.65 184.75 173.69 184.75 173.69 169.76 170 169.76 170 169.76"/>
            <rect class="cls-1" x="196.11" y="169.69" width="4.06" height="15.07"/>
            <path class="cls-1" d="M189.53,184.75h4.3l-6.72-15.07h-4.3l-6.72,15.07h4.3l1.12-2.51h6.92l1.12,2.51h-.02ZM183.03,178.8l1.92-4.31,1.92,4.31h-3.84Z"/>
          </g>
        </g>
      </g>
    </g>
  </g>
</svg>